<svg width="744" height="657" viewBox="0 0 744 657" fill="none" xmlns="http://www.w3.org/2000/svg">
<path d="M371.998 657C553.316 657 700.303 510.013 700.303 328.695C700.303 147.377 553.316 0.390137 371.998 0.390137C190.68 0.390137 43.693 147.377 43.693 328.695C43.693 510.013 190.68 657 371.998 657Z" fill="white"/>
<path opacity="0.1" d="M371.998 657C553.316 657 700.303 510.013 700.303 328.695C700.303 147.377 553.316 0.390137 371.998 0.390137C190.68 0.390137 43.693 147.377 43.693 328.695C43.693 510.013 190.68 657 371.998 657Z" fill="#367CFF"/>
<path d="M158.631 440.204L1.625 439.728L2.271 226.438L110.837 226.767L159.13 275.354L158.631 440.204Z" fill="white"/>
<path opacity="0.3" d="M110.837 226.767L110.69 275.207L159.13 275.354L110.837 226.767Z" fill="#367CFF"/>
<path d="M160.118 275.294C160.112 275.207 160.095 275.12 160.067 275.037C160.056 275.005 160.048 274.974 160.034 274.942C159.987 274.834 159.921 274.734 159.839 274.649L111.546 226.062C111.461 225.979 111.362 225.911 111.253 225.862C111.223 225.849 111.192 225.838 111.16 225.828C111.076 225.799 110.989 225.781 110.9 225.776C110.879 225.776 110.86 225.763 110.839 225.763L2.274 225.438C2.00878 225.438 1.75443 225.544 1.56689 225.731C1.37936 225.919 1.274 226.173 1.274 226.438L0.625 439.725C0.625 439.99 0.730357 440.245 0.917893 440.432C1.10543 440.62 1.35978 440.725 1.625 440.725L158.625 441.204C158.89 441.204 159.145 441.099 159.332 440.911C159.52 440.724 159.625 440.469 159.625 440.204L160.125 275.354C160.13 275.335 160.119 275.316 160.118 275.294ZM111.825 229.185L134.125 251.612L156.719 274.344L111.693 274.207L111.825 229.185ZM2.625 438.731L3.265 227.441L109.83 227.764L109.687 275.204C109.687 275.469 109.792 275.724 109.98 275.911C110.167 276.099 110.422 276.204 110.687 276.204L158.127 276.348L157.634 439.198L2.625 438.731Z" fill="#262626"/>
<path d="M478.709 431.669L264.606 431.02L265.487 140.164L413.534 140.613L479.39 206.869L478.709 431.669Z" fill="white"/>
<path opacity="0.3" d="M413.534 140.613L413.334 206.669L479.39 206.869L413.534 140.613Z" fill="#367CFF"/>
<path d="M480.378 206.809C480.372 206.722 480.356 206.636 480.328 206.553C480.317 206.52 480.308 206.489 480.294 206.453C480.247 206.345 480.182 206.246 480.1 206.16L414.244 139.904C414.159 139.821 414.06 139.753 413.951 139.704C413.92 139.69 413.89 139.682 413.858 139.671C413.774 139.642 413.687 139.624 413.598 139.618C413.577 139.618 413.558 139.606 413.537 139.606L265.49 139.157C265.225 139.157 264.97 139.263 264.783 139.45C264.595 139.638 264.49 139.892 264.49 140.157L263.609 431.013C263.609 431.278 263.714 431.533 263.902 431.72C264.089 431.908 264.344 432.013 264.609 432.013L478.709 432.662C478.974 432.662 479.229 432.557 479.416 432.369C479.604 432.182 479.709 431.927 479.709 431.662L480.39 206.862C480.39 206.85 480.379 206.831 480.378 206.809ZM414.525 143.03L476.977 205.862L414.335 205.672L414.525 143.03ZM265.609 430.023L266.484 141.167L412.531 141.61L412.331 206.666C412.331 206.931 412.436 207.186 412.624 207.373C412.811 207.561 413.066 207.666 413.331 207.666L478.387 207.866L477.712 430.666L265.609 430.023Z" fill="#262626"/>
<path d="M741.872 440.204L584.866 439.728L585.512 226.438L694.078 226.767L742.371 275.354L741.872 440.204Z" fill="white"/>
<path opacity="0.3" d="M694.078 226.767L693.931 275.207L742.371 275.354L694.078 226.767Z" fill="#367CFF"/>
<path d="M743.359 275.294C743.354 275.207 743.337 275.12 743.309 275.037C743.298 275.005 743.289 274.974 743.275 274.942C743.228 274.834 743.163 274.734 743.081 274.649L694.787 226.062C694.702 225.978 694.604 225.911 694.495 225.862C694.464 225.848 694.433 225.839 694.401 225.828C694.317 225.799 694.23 225.781 694.142 225.776C694.121 225.776 694.102 225.763 694.081 225.763L585.515 225.434C585.25 225.434 584.995 225.539 584.808 225.727C584.62 225.915 584.515 226.169 584.515 226.434L583.869 439.724C583.869 439.989 583.974 440.244 584.162 440.431C584.349 440.619 584.604 440.724 584.869 440.724L741.875 441.2C742.14 441.2 742.395 441.095 742.582 440.907C742.77 440.72 742.875 440.465 742.875 440.2L743.375 275.35C743.371 275.335 743.36 275.316 743.359 275.294ZM695.07 229.185L717.362 251.612L739.96 274.344L694.934 274.207L695.07 229.185ZM585.87 438.731L586.51 227.441L693.076 227.764L692.932 275.204C692.932 275.469 693.037 275.724 693.225 275.911C693.412 276.099 693.667 276.204 693.932 276.204L741.372 276.348L740.879 439.198L585.87 438.731Z" fill="#262626"/>
<path d="M318.521 309.662C326.799 309.662 333.509 302.952 333.509 294.674C333.509 286.396 326.799 279.686 318.521 279.686C310.243 279.686 303.533 286.396 303.533 294.674C303.533 302.952 310.243 309.662 318.521 309.662Z" fill="#292A2E"/>
<path d="M421.293 309.662C429.571 309.662 436.281 302.952 436.281 294.674C436.281 286.396 429.571 279.686 421.293 279.686C413.015 279.686 406.305 286.396 406.305 294.674C406.305 302.952 413.015 309.662 421.293 309.662Z" fill="#292A2E"/>
<path d="M390.001 336.124H349.813C349.548 336.124 349.293 336.019 349.106 335.831C348.918 335.644 348.813 335.389 348.813 335.124C348.813 334.859 348.918 334.604 349.106 334.417C349.293 334.229 349.548 334.124 349.813 334.124H390.001C390.266 334.124 390.521 334.229 390.708 334.417C390.896 334.604 391.001 334.859 391.001 335.124C391.001 335.389 390.896 335.644 390.708 335.831C390.521 336.019 390.266 336.124 390.001 336.124Z" fill="#262626"/>
<path d="M303.06 337.547C310.444 337.547 316.43 334.397 316.43 330.51C316.43 326.624 310.444 323.473 303.06 323.473C295.676 323.473 289.69 326.624 289.69 330.51C289.69 334.397 295.676 337.547 303.06 337.547Z" fill="white"/>
<path d="M436.754 337.547C444.138 337.547 450.124 334.397 450.124 330.51C450.124 326.624 444.138 323.473 436.754 323.473C429.37 323.473 423.384 326.624 423.384 330.51C423.384 334.397 429.37 337.547 436.754 337.547Z" fill="white"/>
<g opacity="0.4">
<path d="M303.06 337.547C310.444 337.547 316.43 334.397 316.43 330.51C316.43 326.624 310.444 323.473 303.06 323.473C295.676 323.473 289.69 326.624 289.69 330.51C289.69 334.397 295.676 337.547 303.06 337.547Z" fill="#367CFF"/>
<path d="M436.754 337.547C444.138 337.547 450.124 334.397 450.124 330.51C450.124 326.624 444.138 323.473 436.754 323.473C429.37 323.473 423.384 326.624 423.384 330.51C423.384 334.397 429.37 337.547 436.754 337.547Z" fill="#367CFF"/>
</g>
<path d="M479.712 209.253C454.191 179.953 418.077 161.989 379.313 159.314C340.548 156.64 302.309 169.472 273.006 194.99C224.05 237.627 209.006 308.513 236.429 367.39C241.935 379.188 248.996 390.195 257.422 400.12L259.222 402.253L125.03 544.664C122.576 547.307 121.266 550.812 121.387 554.416C121.507 558.02 123.048 561.431 125.672 563.904C128.297 566.376 131.793 567.711 135.398 567.617C139.003 567.522 142.424 566.006 144.916 563.399L279.075 421.01L281.316 422.688C310.267 444.404 346.231 454.637 382.278 451.414C418.325 448.191 451.904 431.741 476.544 405.234C501.184 378.727 515.141 344.038 515.727 307.852C516.313 271.666 503.485 236.544 479.716 209.253H479.712ZM488.125 313.681C486.048 343.768 472.642 371.95 450.611 392.546C428.58 413.142 399.561 424.621 369.402 424.67C366.617 424.67 363.823 424.57 361.02 424.37C341.443 423.041 322.497 416.902 305.862 406.497C289.226 396.092 275.415 381.742 265.654 364.721C255.892 347.7 250.482 328.533 249.902 308.92C249.323 289.307 253.592 269.854 262.332 252.286C271.071 234.718 284.011 219.578 300.003 208.209C315.995 196.84 334.546 189.593 354.01 187.11C373.474 184.628 393.249 186.987 411.583 193.978C429.917 200.969 446.243 212.376 459.112 227.188C469.422 238.974 477.294 252.685 482.274 267.531C487.254 282.377 489.243 298.062 488.125 313.681Z" fill="#367CFF"/>
</svg>
